<mxfile host="65bd71144e">
    <diagram id="l4TU6wDhTEbsk7ot10Vh" name="Página-1">
        <mxGraphModel dx="656" dy="649" grid="1" gridSize="10" guides="1" tooltips="1" connect="1" arrows="1" fold="1" page="1" pageScale="1" pageWidth="827" pageHeight="1169" math="0" shadow="0">
            <root>
                <mxCell id="0"/>
                <mxCell id="1" parent="0"/>
                <mxCell id="22" value="&lt;font style=&quot;font-size: 18px;&quot;&gt;Gastos&lt;/font&gt;" style="rounded=1;whiteSpace=wrap;html=1;verticalAlign=top;" vertex="1" parent="1">
                    <mxGeometry x="50" y="190" width="820" height="560" as="geometry"/>
                </mxCell>
                <mxCell id="3" value="Eventos de dominio" style="rounded=1;whiteSpace=wrap;html=1;fillColor=#ffcc99;strokeColor=#36393d;" vertex="1" parent="1">
                    <mxGeometry x="90" y="80" width="120" height="60" as="geometry"/>
                </mxCell>
                <mxCell id="4" value="&lt;div style=&quot;color: rgb(63, 63, 63); text-align: left;&quot;&gt;Comandos&lt;/div&gt;&lt;div style=&quot;color: rgb(63, 63, 63); text-align: left;&quot;&gt;&lt;/div&gt;" style="rounded=1;whiteSpace=wrap;html=1;fillColor=#dae8fc;strokeColor=#6c8ebf;" vertex="1" parent="1">
                    <mxGeometry x="240" y="80" width="120" height="60" as="geometry"/>
                </mxCell>
                <mxCell id="5" value="&lt;div style=&quot;color: rgb(63, 63, 63); text-align: left;&quot;&gt;Agregados&lt;/div&gt;&lt;div style=&quot;color: rgb(63, 63, 63); text-align: left;&quot;&gt;&lt;/div&gt;" style="rounded=1;whiteSpace=wrap;html=1;fillColor=#ffff88;strokeColor=#36393d;" vertex="1" parent="1">
                    <mxGeometry x="390" y="80" width="120" height="60" as="geometry"/>
                </mxCell>
                <mxCell id="6" value="&lt;div style=&quot;color: rgb(63, 63, 63); text-align: left;&quot;&gt;Políticas&lt;/div&gt;&lt;div style=&quot;color: rgb(63, 63, 63); text-align: left;&quot;&gt;&lt;/div&gt;" style="rounded=1;whiteSpace=wrap;html=1;fillColor=#fad9d5;strokeColor=#ae4132;" vertex="1" parent="1">
                    <mxGeometry x="540" y="80" width="120" height="60" as="geometry"/>
                </mxCell>
                <mxCell id="7" value="&lt;div style=&quot;color: rgb(63, 63, 63); text-align: left;&quot;&gt;UI&lt;/div&gt;&lt;div style=&quot;color: rgb(63, 63, 63); text-align: left;&quot;&gt;&lt;/div&gt;" style="rounded=1;whiteSpace=wrap;html=1;fillColor=#cdeb8b;strokeColor=#36393d;" vertex="1" parent="1">
                    <mxGeometry x="690" y="80" width="120" height="60" as="geometry"/>
                </mxCell>
                <mxCell id="8" value="&lt;div style=&quot;color: rgb(63, 63, 63); text-align: left;&quot;&gt;Sistemas Externos&lt;/div&gt;&lt;div style=&quot;color: rgb(63, 63, 63); text-align: left;&quot;&gt;&lt;/div&gt;" style="rounded=1;whiteSpace=wrap;html=1;fillColor=#e1d5e7;strokeColor=#9673a6;" vertex="1" parent="1">
                    <mxGeometry x="840" y="80" width="120" height="60" as="geometry"/>
                </mxCell>
                <mxCell id="9" value="Gasto Registrado" style="rounded=1;whiteSpace=wrap;html=1;fillColor=#ffcc99;strokeColor=#36393d;" vertex="1" parent="1">
                    <mxGeometry x="220" y="240" width="120" height="60" as="geometry"/>
                </mxCell>
                <mxCell id="10" value="&lt;div style=&quot;color: rgb(63, 63, 63); text-align: left;&quot;&gt;Gasto:&lt;/div&gt;&lt;div style=&quot;color: rgb(63, 63, 63); text-align: left;&quot;&gt;- Monto&lt;/div&gt;&lt;div style=&quot;color: rgb(63, 63, 63); text-align: left;&quot;&gt;- Categoria&lt;/div&gt;&lt;div style=&quot;color: rgb(63, 63, 63); text-align: left;&quot;&gt;- Subcategoria&lt;/div&gt;&lt;div style=&quot;color: rgb(63, 63, 63); text-align: left;&quot;&gt;- Método de pago&lt;/div&gt;&lt;div style=&quot;color: rgb(63, 63, 63); text-align: left;&quot;&gt;- Nota?&lt;/div&gt;&lt;div style=&quot;color: rgb(63, 63, 63); text-align: left;&quot;&gt;&lt;/div&gt;" style="rounded=1;whiteSpace=wrap;html=1;fillColor=#ffff88;strokeColor=#36393d;" vertex="1" parent="1">
                    <mxGeometry x="220" y="300" width="120" height="120" as="geometry"/>
                </mxCell>
                <mxCell id="13" value="&lt;div style=&quot;color: rgb(63, 63, 63); text-align: left;&quot;&gt;Registrar Gasto&lt;/div&gt;&lt;div style=&quot;color: rgb(63, 63, 63); text-align: left;&quot;&gt;&lt;/div&gt;" style="rounded=1;whiteSpace=wrap;html=1;fillColor=#dae8fc;strokeColor=#6c8ebf;" vertex="1" parent="1">
                    <mxGeometry x="100" y="240" width="120" height="60" as="geometry"/>
                </mxCell>
                <mxCell id="14" value="&lt;div style=&quot;color: rgb(63, 63, 63); text-align: left;&quot;&gt;Editar Gasto&lt;/div&gt;&lt;div style=&quot;color: rgb(63, 63, 63); text-align: left;&quot;&gt;&lt;/div&gt;" style="rounded=1;whiteSpace=wrap;html=1;fillColor=#dae8fc;strokeColor=#6c8ebf;" vertex="1" parent="1">
                    <mxGeometry x="414" y="240" width="120" height="60" as="geometry"/>
                </mxCell>
                <mxCell id="15" value="Gasto Actualizado" style="rounded=1;whiteSpace=wrap;html=1;fillColor=#ffcc99;strokeColor=#36393d;" vertex="1" parent="1">
                    <mxGeometry x="534" y="240" width="120" height="60" as="geometry"/>
                </mxCell>
                <mxCell id="16" value="&lt;div style=&quot;color: rgb(63, 63, 63); text-align: left;&quot;&gt;Tarjeta:&lt;/div&gt;&lt;div style=&quot;color: rgb(63, 63, 63); text-align: left;&quot;&gt;- Monto mensual gastado&lt;/div&gt;&lt;div style=&quot;color: rgb(63, 63, 63); text-align: left;&quot;&gt;&lt;/div&gt;" style="rounded=1;whiteSpace=wrap;html=1;fillColor=#ffff88;strokeColor=#36393d;" vertex="1" parent="1">
                    <mxGeometry x="380" y="390" width="160" height="120" as="geometry"/>
                </mxCell>
                <mxCell id="17" value="&lt;div style=&quot;color: rgb(63, 63, 63); text-align: left;&quot;&gt;Categoria:&lt;/div&gt;&lt;div style=&quot;color: rgb(63, 63, 63); text-align: left;&quot;&gt;- id&lt;/div&gt;&lt;div style=&quot;color: rgb(63, 63, 63); text-align: left;&quot;&gt;- nombre&lt;/div&gt;&lt;div style=&quot;color: rgb(63, 63, 63); text-align: left;&quot;&gt;- subcategorias&lt;/div&gt;&lt;div style=&quot;color: rgb(63, 63, 63); text-align: left;&quot;&gt;&lt;/div&gt;" style="rounded=1;whiteSpace=wrap;html=1;fillColor=#ffff88;strokeColor=#36393d;" vertex="1" parent="1">
                    <mxGeometry x="570" y="390" width="120" height="120" as="geometry"/>
                </mxCell>
                <mxCell id="18" value="&lt;div style=&quot;color: rgb(63, 63, 63); text-align: left;&quot;&gt;Subcategoria:&lt;/div&gt;&lt;div style=&quot;color: rgb(63, 63, 63); text-align: left;&quot;&gt;- id&lt;/div&gt;&lt;div style=&quot;color: rgb(63, 63, 63); text-align: left;&quot;&gt;- nombre&lt;/div&gt;&lt;div style=&quot;color: rgb(63, 63, 63); text-align: left;&quot;&gt;&lt;/div&gt;" style="rounded=1;whiteSpace=wrap;html=1;fillColor=#ffff88;strokeColor=#36393d;" vertex="1" parent="1">
                    <mxGeometry x="720" y="390" width="120" height="120" as="geometry"/>
                </mxCell>
                <mxCell id="19" value="&lt;div style=&quot;color: rgb(63, 63, 63); text-align: left;&quot;&gt;Form Crear/Editar Gastos&lt;/div&gt;&lt;div style=&quot;color: rgb(63, 63, 63); text-align: left;&quot;&gt;&lt;/div&gt;" style="rounded=1;whiteSpace=wrap;html=1;fillColor=#cdeb8b;strokeColor=#36393d;" vertex="1" parent="1">
                    <mxGeometry x="160" y="440" width="180" height="60" as="geometry"/>
                </mxCell>
                <mxCell id="20" value="&lt;div style=&quot;color: rgb(63, 63, 63); text-align: left;&quot;&gt;AWS Amplify&lt;/div&gt;&lt;div style=&quot;color: rgb(63, 63, 63); text-align: left;&quot;&gt;&lt;/div&gt;" style="rounded=1;whiteSpace=wrap;html=1;fillColor=#e1d5e7;strokeColor=#9673a6;" vertex="1" parent="1">
                    <mxGeometry x="220" y="524.5" width="120" height="60" as="geometry"/>
                </mxCell>
                <mxCell id="24" value="&lt;div style=&quot;color: rgb(63, 63, 63); text-align: left;&quot;&gt;Diagrama de Sankey&lt;/div&gt;&lt;div style=&quot;color: rgb(63, 63, 63); text-align: left;&quot;&gt;&lt;/div&gt;" style="rounded=1;whiteSpace=wrap;html=1;fillColor=#cdeb8b;strokeColor=#36393d;" vertex="1" parent="1">
                    <mxGeometry x="380" y="530" width="180" height="60" as="geometry"/>
                </mxCell>
                <mxCell id="25" value="&lt;div style=&quot;color: rgb(63, 63, 63); text-align: left;&quot;&gt;d3-sankey&lt;/div&gt;&lt;div style=&quot;color: rgb(63, 63, 63); text-align: left;&quot;&gt;&lt;/div&gt;" style="rounded=1;whiteSpace=wrap;html=1;fillColor=#e1d5e7;strokeColor=#9673a6;" vertex="1" parent="1">
                    <mxGeometry x="220" y="600" width="120" height="60" as="geometry"/>
                </mxCell>
            </root>
        </mxGraphModel>
    </diagram>
</mxfile>
